<!DOCTYPE svg PUBLIC "-//W3C//DTD SVG 1.1//EN" "http://www.w3.org/Graphics/SVG/1.1/DTD/svg11.dtd">
<!-- Uploaded to: SVG Repo, www.svgrepo.com, Transformed by: SVG Repo Mixer Tools -->
<svg width="800px" height="800px" viewBox="0 0 1024 1024" class="icon" version="1.1" xmlns="http://www.w3.org/2000/svg" fill="#000000">
<g id="SVGRepo_bgCarrier" stroke-width="0"/>
<g id="SVGRepo_tracerCarrier" stroke-linecap="round" stroke-linejoin="round"/>
<g id="SVGRepo_iconCarrier">
<path d="M218.1 181.2h597.3v24.9H218.1z" fill="#b0454a"/>
<path d="M218.1 206h572.4v597.3H218.1z" fill="#ef8186"/>
<path d="M790.5 181.2h24.9v647.1h-24.9zM218.1 181.2H243v647.1h-24.9z" fill="#b0454a"/>
<path d="M218.1 803.4h597.3v24.9H218.1z" fill="#b0454a"/>
<path d="M292.7 255.8h448v149.3h-448zM292.7 479.8h49.8v49.8h-49.8zM392.3 479.8h49.8v49.8h-49.8zM491.8 479.8h49.8v49.8h-49.8zM591.4 479.8h149.3v49.8H591.4zM591.4 579.4h149.3v149.3H591.4zM491.8 579.4h49.8v49.8h-49.8zM491.8 678.9h49.8v49.8h-49.8zM292.7 579.4H442v49.8H292.7zM292.7 678.9H442v49.8H292.7z" fill="#c44a4a"/>
</g>
</svg>