<?xml version="1.0" encoding="iso-8859-1"?>
<!-- Uploaded to: SVG Repo, www.svgrepo.com, Generator: SVG Repo Mixer Tools -->
<svg version="1.1" id="Layer_1" xmlns="http://www.w3.org/2000/svg" xmlns:xlink="http://www.w3.org/1999/xlink" 
	 viewBox="0 0 512 512" xml:space="preserve">
<g>
	<path style="fill:#CCD1D9;" d="M85.25,53.336v319.906c0,23.609,19.141,42.766,42.75,42.766c23.625,0,42.781-19.156,42.781-42.766
		V53.336H85.25z"/>
	<path style="fill:#CCD1D9;" d="M213.25,53.336v319.906c0,23.609,19.141,42.766,42.75,42.766c23.625,0,42.781-19.156,42.781-42.766
		V53.336H213.25z"/>
	<path style="fill:#CCD1D9;" d="M341.25,53.336v319.906c0,23.609,19.141,42.766,42.75,42.766c23.625,0,42.781-19.156,42.781-42.766
		V53.336H341.25z"/>
	<rect x="32" y="128.01" style="fill:#CCD1D9;" width="21.344" height="309.33"/>
	<rect x="458.67" y="128.01" style="fill:#CCD1D9;" width="21.328" height="309.33"/>
</g>
<g>
	<path style="fill:#E6E9ED;" d="M501.344,117.336H10.672C4.781,117.336,0,122.117,0,128.008c0,5.891,4.781,10.656,10.672,10.656
		h490.672c5.891,0,10.656-4.766,10.656-10.656S507.234,117.336,501.344,117.336z"/>
	<path style="fill:#E6E9ED;" d="M501.344,437.336H10.672C4.781,437.336,0,442.117,0,448.008s4.781,10.656,10.672,10.656h490.672
		c5.891,0,10.656-4.766,10.656-10.656S507.234,437.336,501.344,437.336z"/>
</g>
<path style="fill:#48CFAD;" d="M85.25,266.664v106.578c0,23.609,19.141,42.766,42.75,42.766c23.625,0,42.781-19.156,42.781-42.766
	V266.664H85.25z"/>
<g>
	<path style="fill:#E6E9ED;" d="M170.781,53.336H85.25c-5.906,0-10.672,4.781-10.672,10.672s4.766,10.656,10.672,10.656h85.531
		c5.875,0,10.656-4.766,10.656-10.656S176.656,53.336,170.781,53.336z"/>
	<path style="fill:#E6E9ED;" d="M298.781,53.336H213.25c-5.906,0-10.672,4.781-10.672,10.672s4.766,10.656,10.672,10.656h85.531
		c5.875,0,10.656-4.766,10.656-10.656S304.656,53.336,298.781,53.336z"/>
	<path style="fill:#E6E9ED;" d="M426.781,53.336H341.25c-5.906,0-10.672,4.781-10.672,10.672s4.766,10.656,10.672,10.656h85.531
		c5.875,0,10.656-4.766,10.656-10.656S432.656,53.336,426.781,53.336z"/>
</g>
<path style="fill:#4FC1E9;" d="M213.25,202.664v170.578c0,23.609,19.141,42.766,42.75,42.766c23.625,0,42.781-19.156,42.781-42.766
	V202.664H213.25z"/>
<path style="fill:#A0D468;" d="M341.25,330.664v42.578c0,23.609,19.141,42.766,42.75,42.766c23.625,0,42.781-19.156,42.781-42.766
	v-42.578H341.25z"/>
</svg>